<svg id="icons" xmlns="http://www.w3.org/2000/svg" xmlns:xlink="http://www.w3.org/1999/xlink" viewBox="0 0 128 128"><defs><style>.cls-1,.cls-2{fill-rule:evenodd;}.cls-1{fill:url(#linear-gradient);}.cls-2,.cls-6{fill:none;stroke:#3786a5;stroke-linecap:round;stroke-linejoin:round;stroke-width:2px;}.cls-2{opacity:0.24;}.cls-3{fill:#fff;}.cls-4{fill:#ace6ef;}.cls-5{fill:#6ecbe0;}</style><linearGradient id="linear-gradient" x1="102.93" y1="25.08" x2="7.43" y2="120.58" gradientTransform="matrix(-1, 0, 0, 1, 128, 0)" gradientUnits="userSpaceOnUse"><stop offset="0" stop-color="#eef2f7"/><stop offset="1" stop-color="#cbeef7"/></linearGradient></defs><title>test-results</title><path class="cls-1" d="M108.18,38.53C104.16,13.39,32-7.89,32.86,24.27S-25.55,56.44,13.09,87s142.84,52,107.83,8C99,67.53,111.77,61,108.18,38.53Z"/><path class="cls-2" d="M110.67,98.13q1.14,1.55,2.43,3.15c1,1.21,1.75,2.28,2.37,3.22"/><path class="cls-2" d="M106.79,92.6a65.34,65.34,0,0,1-5.32-9.73"/><path class="cls-2" d="M14,65c1.79-1.49,3.86-3,5.42-4.18,1.28-1,2.63-2,4-3"/><g id="_Group_" data-name="&lt;Group&gt;"><path class="cls-3" d="M23.53,75a2.06,2.06,0,1,1-2.9,0A2,2,0,0,1,23.53,75Z"/><path class="cls-3" d="M38.76,67A4.11,4.11,0,1,1,33,67,4.08,4.08,0,0,1,38.76,67Z"/><path class="cls-3" d="M45.33,54.66a3.09,3.09,0,1,1-4.34,0A3.07,3.07,0,0,1,45.33,54.66Z"/><path class="cls-3" d="M60.55,52.43a3,3,0,0,1,.89,2.15,3.1,3.1,0,0,1-5.26,2.21l-.72-.72L45.37,46l-.72-.72A3.08,3.08,0,0,1,49,40.89Z"/><path class="cls-3" d="M51,22v6H37V54.34l-6,6V26a4,4,0,0,1,4-4Z"/><path class="cls-3" d="M89,28V95H77v12H37V74.53l1.74-1.74L55.46,56.07l.72.72a3.1,3.1,0,0,0,5.26-2.21,3,3,0,0,0-.89-2.15L49,40.89a3.08,3.08,0,0,0-4.36,4.36l.72.72L37,54.34V28H51a2,2,0,0,0,2,2H73a2,2,0,0,0,2-2Z"/><path class="cls-3" d="M95,26v83a4,4,0,0,1-4,4H35a4,4,0,0,1-4-4V80.53l6-6V107H77L89,95V28H75V22H91A4,4,0,0,1,95,26Z"/><polygon class="cls-4" points="89 95 77 107 77 95 89 95"/><path class="cls-5" d="M75,22v6a2,2,0,0,1-2,2H53a2,2,0,0,1-2-2V22a2,2,0,0,1,2-2h5a5,5,0,0,1,10,0h5A2,2,0,0,1,75,22Z"/><path class="cls-5" d="M45.37,46l10.09,10.1L38.74,72.79a4.08,4.08,0,1,0-5.79,0,4.08,4.08,0,0,0,5.79,0L37,74.53l-6,6-5.35,5.35A7.13,7.13,0,1,1,15.56,75.79L31,60.34l6-6Zm-.06,13A3.06,3.06,0,1,0,41,59,3.07,3.07,0,0,0,45.31,59ZM23.51,77.92a2,2,0,1,0-2.89,0A2,2,0,0,0,23.51,77.92Z"/><path class="cls-6" d="M31,60.34V26a4,4,0,0,1,4-4H51"/><path class="cls-6" d="M75,22H91a4,4,0,0,1,4,4v83a4,4,0,0,1-4,4H35a4,4,0,0,1-4-4V80.53"/><path class="cls-6" d="M37,74.53V107H77L89,95V28H75a2,2,0,0,1-2,2H53a2,2,0,0,1-2-2H37V54.34"/><path class="cls-6" d="M55.46,56.07l.72.72a3.1,3.1,0,0,0,5.26-2.21,3,3,0,0,0-.89-2.15L49,40.89a3.08,3.08,0,0,0-4.36,4.36l.72.72"/><path class="cls-6" d="M31,60.34,15.56,75.79A7.13,7.13,0,1,0,25.65,85.88L31,80.53l6-6,1.74-1.74L55.46,56.07,45.37,46,37,54.34Z"/><path class="cls-6" d="M33,67a4.08,4.08,0,1,0,5.79,0A4.1,4.1,0,0,0,33,67Z"/><path class="cls-6" d="M20.63,75a2,2,0,1,0,2.9,0A2.05,2.05,0,0,0,20.63,75Z"/><path class="cls-6" d="M41,54.68a3.06,3.06,0,1,0,4.34,0A3.08,3.08,0,0,0,41,54.68Z"/><path class="cls-6" d="M75,28V22a2,2,0,0,0-2-2H68a5,5,0,0,0-10,0H53a2,2,0,0,0-2,2v6"/><polyline class="cls-6" points="77 107 77 95 89 95"/><line class="cls-6" x1="65" y1="44" x2="79" y2="44"/><line class="cls-6" x1="69" y1="52" x2="79" y2="52"/><line class="cls-6" x1="69" y1="60" x2="79" y2="60"/><line class="cls-6" x1="55" y1="68" x2="79" y2="68"/><line class="cls-6" x1="47" y1="84" x2="79" y2="84"/><line class="cls-6" x1="47" y1="92" x2="67" y2="92"/></g></svg>